<?xml version="1.0" encoding="UTF-8"?>
<svg version="1.1" xmlns="http://www.w3.org/2000/svg" width="300" height="300">
<path d="M0 0 C9.9 0 19.8 0 30 0 C30 1.98 30 3.96 30 6 C33.96 6 37.92 6 42 6 C42 7.98 42 9.96 42 12 C49.92 12 57.84 12 66 12 C66 10.02 66 8.04 66 6 C87.78 6 109.56 6 132 6 C132 7.98 132 9.96 132 12 C137.94 12 143.88 12 150 12 C150 13.98 150 15.96 150 18 C153.96 18 157.92 18 162 18 C162 14.04 162 10.08 162 6 C165.96 6 169.92 6 174 6 C174 4.02 174 2.04 174 0 C187.86 0 201.72 0 216 0 C216 1.98 216 3.96 216 6 C219.96 6 223.92 6 228 6 C228 7.98 228 9.96 228 12 C229.98 12 231.96 12 234 12 C234 15.96 234 19.92 234 24 C235.98 24 237.96 24 240 24 C240 33.9 240 43.8 240 54 C238.02 54 236.04 54 234 54 C234 57.96 234 61.92 234 66 C232.02 66 230.04 66 228 66 C228 71.94 228 77.88 228 84 C229.98 84 231.96 84 234 84 C234 85.98 234 87.96 234 90 C235.98 90 237.96 90 240 90 C240 113.76 240 137.52 240 162 C238.02 162 236.04 162 234 162 C234 165.96 234 169.92 234 174 C232.02 174 230.04 174 228 174 C228 175.98 228 177.96 228 180 C224.04 180 220.08 180 216 180 C216 181.98 216 183.96 216 186 C212.04 186 208.08 186 204 186 C204 187.98 204 189.96 204 192 C192.12 192 180.24 192 168 192 C168 195.96 168 199.92 168 204 C164.04 204 160.08 204 156 204 C156 205.98 156 207.96 156 210 C150.06 210 144.12 210 138 210 C138 211.98 138 213.96 138 216 C136.02 216 134.04 216 132 216 C132 219.96 132 223.92 132 228 C133.98 228 135.96 228 138 228 C138 229.98 138 231.96 138 234 C139.98 234 141.96 234 144 234 C144 232.02 144 230.04 144 228 C145.98 228 147.96 228 150 228 C150 226.02 150 224.04 150 222 C153.96 222 157.92 222 162 222 C162 220.02 162 218.04 162 216 C179.82 216 197.64 216 216 216 C216 217.98 216 219.96 216 222 C214.02 222 212.04 222 210 222 C210 225.96 210 229.92 210 234 C206.04 234 202.08 234 198 234 C198 235.98 198 237.96 198 240 C192.06 240 186.12 240 180 240 C180 241.98 180 243.96 180 246 C174.06 246 168.12 246 162 246 C162 247.98 162 249.96 162 252 C156.06 252 150.12 252 144 252 C144 253.98 144 255.96 144 258 C140.04 258 136.08 258 132 258 C132 259.98 132 261.96 132 264 C128.04 264 124.08 264 120 264 C120 265.98 120 267.96 120 270 C112.08 270 104.16 270 96 270 C96 268.02 96 266.04 96 264 C90.06 264 84.12 264 78 264 C78 260.04 78 256.08 78 252 C76.02 252 74.04 252 72 252 C72 248.04 72 244.08 72 240 C64.08 240 56.16 240 48 240 C48 234.06 48 228.12 48 222 C49.98 222 51.96 222 54 222 C54 220.02 54 218.04 54 216 C55.98 216 57.96 216 60 216 C60 214.02 60 212.04 60 210 C63.96 210 67.92 210 72 210 C72 208.02 72 206.04 72 204 C60.12 204 48.24 204 36 204 C36 202.02 36 200.04 36 198 C30.06 198 24.12 198 18 198 C18 196.02 18 194.04 18 192 C14.04 192 10.08 192 6 192 C6 190.02 6 188.04 6 186 C4.02 186 2.04 186 0 186 C0 184.02 0 182.04 0 180 C-3.96 180 -7.92 180 -12 180 C-12 178.02 -12 176.04 -12 174 C-13.98 174 -15.96 174 -18 174 C-18 170.04 -18 166.08 -18 162 C-19.98 162 -21.96 162 -24 162 C-24 158.04 -24 154.08 -24 150 C-25.98 150 -27.96 150 -30 150 C-30 138.12 -30 126.24 -30 114 C-28.02 114 -26.04 114 -24 114 C-24 102.12 -24 90.24 -24 78 C-22.02 78 -20.04 78 -18 78 C-18 74.04 -18 70.08 -18 66 C-19.98 66 -21.96 66 -24 66 C-24 64.02 -24 62.04 -24 60 C-25.98 60 -27.96 60 -30 60 C-30 54.06 -30 48.12 -30 42 C-28.02 42 -26.04 42 -24 42 C-24 36.06 -24 30.12 -24 24 C-22.02 24 -20.04 24 -18 24 C-18 20.04 -18 16.08 -18 12 C-16.02 12 -14.04 12 -12 12 C-12 10.02 -12 8.04 -12 6 C-8.04 6 -4.08 6 0 6 C0 4.02 0 2.04 0 0 Z M114 240 C114 241.98 114 243.96 114 246 C112.02 246 110.04 246 108 246 C108 247.98 108 249.96 108 252 C106.02 252 104.04 252 102 252 C102 253.98 102 255.96 102 258 C100.02 258 98.04 258 96 258 C96 259.98 96 261.96 96 264 C99.96 264 103.92 264 108 264 C108 262.02 108 260.04 108 258 C111.96 258 115.92 258 120 258 C120 252.06 120 246.12 120 240 C118.02 240 116.04 240 114 240 Z " fill="#FFFFFF" transform="translate(48,18)"/>
<path d="M0 0 C9.9 0 19.8 0 30 0 C30 1.98 30 3.96 30 6 C33.96 6 37.92 6 42 6 C42 7.98 42 9.96 42 12 C45.96 12 49.92 12 54 12 C54 15.96 54 19.92 54 24 C55.98 24 57.96 24 60 24 C60 25.98 60 27.96 60 30 C61.98 30 63.96 30 66 30 C66 26.04 66 22.08 66 18 C67.98 18 69.96 18 72 18 C72 16.02 72 14.04 72 12 C73.98 12 75.96 12 78 12 C78 10.02 78 8.04 78 6 C91.86 6 105.72 6 120 6 C120 9.96 120 13.92 120 18 C121.98 18 123.96 18 126 18 C126 19.98 126 21.96 126 24 C127.98 24 129.96 24 132 24 C132 25.98 132 27.96 132 30 C133.98 30 135.96 30 138 30 C138 33.96 138 37.92 138 42 C139.98 42 141.96 42 144 42 C144 43.98 144 45.96 144 48 C147.96 48 151.92 48 156 48 C156 46.02 156 44.04 156 42 C161.94 42 167.88 42 174 42 C174 43.98 174 45.96 174 48 C170.04 48 166.08 48 162 48 C162 49.98 162 51.96 162 54 C150.12 54 138.24 54 126 54 C126 57.96 126 61.92 126 66 C122.04 66 118.08 66 114 66 C114 67.98 114 69.96 114 72 C108.06 72 102.12 72 96 72 C96 73.98 96 75.96 96 78 C94.02 78 92.04 78 90 78 C90 81.96 90 85.92 90 90 C91.98 90 93.96 90 96 90 C96 91.98 96 93.96 96 96 C97.98 96 99.96 96 102 96 C102 94.02 102 92.04 102 90 C103.98 90 105.96 90 108 90 C108 88.02 108 86.04 108 84 C111.96 84 115.92 84 120 84 C120 82.02 120 80.04 120 78 C137.82 78 155.64 78 174 78 C174 79.98 174 81.96 174 84 C172.02 84 170.04 84 168 84 C168 87.96 168 91.92 168 96 C164.04 96 160.08 96 156 96 C156 97.98 156 99.96 156 102 C150.06 102 144.12 102 138 102 C138 103.98 138 105.96 138 108 C132.06 108 126.12 108 120 108 C120 109.98 120 111.96 120 114 C114.06 114 108.12 114 102 114 C102 115.98 102 117.96 102 120 C98.04 120 94.08 120 90 120 C90 121.98 90 123.96 90 126 C86.04 126 82.08 126 78 126 C78 127.98 78 129.96 78 132 C70.08 132 62.16 132 54 132 C54 130.02 54 128.04 54 126 C48.06 126 42.12 126 36 126 C36 122.04 36 118.08 36 114 C34.02 114 32.04 114 30 114 C30 110.04 30 106.08 30 102 C22.08 102 14.16 102 6 102 C6 96.06 6 90.12 6 84 C7.98 84 9.96 84 12 84 C12 82.02 12 80.04 12 78 C13.98 78 15.96 78 18 78 C18 76.02 18 74.04 18 72 C21.96 72 25.92 72 30 72 C30 70.02 30 68.04 30 66 C18.12 66 6.24 66 -6 66 C-6 64.02 -6 62.04 -6 60 C-11.94 60 -17.88 60 -24 60 C-24 58.02 -24 56.04 -24 54 C-22.02 54 -20.04 54 -18 54 C-18 42.12 -18 30.24 -18 18 C-16.02 18 -14.04 18 -12 18 C-12 16.02 -12 14.04 -12 12 C-10.02 12 -8.04 12 -6 12 C-6 10.02 -6 8.04 -6 6 C-4.02 6 -2.04 6 0 6 C0 4.02 0 2.04 0 0 Z M72 102 C72 103.98 72 105.96 72 108 C70.02 108 68.04 108 66 108 C66 109.98 66 111.96 66 114 C64.02 114 62.04 114 60 114 C60 115.98 60 117.96 60 120 C58.02 120 56.04 120 54 120 C54 121.98 54 123.96 54 126 C57.96 126 61.92 126 66 126 C66 124.02 66 122.04 66 120 C69.96 120 73.92 120 78 120 C78 114.06 78 108.12 78 102 C76.02 102 74.04 102 72 102 Z " fill="#65BBE9" transform="translate(90,156)"/>
<path d="M0 0 C13.86 0 27.72 0 42 0 C42 3.96 42 7.92 42 12 C43.98 12 45.96 12 48 12 C48 13.98 48 15.96 48 18 C49.98 18 51.96 18 54 18 C54 19.98 54 21.96 54 24 C55.98 24 57.96 24 60 24 C60 27.96 60 31.92 60 36 C61.98 36 63.96 36 66 36 C66 37.98 66 39.96 66 42 C69.96 42 73.92 42 78 42 C78 40.02 78 38.04 78 36 C83.94 36 89.88 36 96 36 C96 37.98 96 39.96 96 42 C92.04 42 88.08 42 84 42 C84 43.98 84 45.96 84 48 C72.12 48 60.24 48 48 48 C48 51.96 48 55.92 48 60 C44.04 60 40.08 60 36 60 C36 61.98 36 63.96 36 66 C30.06 66 24.12 66 18 66 C18 67.98 18 69.96 18 72 C16.02 72 14.04 72 12 72 C12 75.96 12 79.92 12 84 C13.98 84 15.96 84 18 84 C18 85.98 18 87.96 18 90 C19.98 90 21.96 90 24 90 C24 88.02 24 86.04 24 84 C25.98 84 27.96 84 30 84 C30 82.02 30 80.04 30 78 C33.96 78 37.92 78 42 78 C42 76.02 42 74.04 42 72 C59.82 72 77.64 72 96 72 C96 73.98 96 75.96 96 78 C94.02 78 92.04 78 90 78 C90 81.96 90 85.92 90 90 C86.04 90 82.08 90 78 90 C78 91.98 78 93.96 78 96 C72.06 96 66.12 96 60 96 C60 97.98 60 99.96 60 102 C54.06 102 48.12 102 42 102 C42 103.98 42 105.96 42 108 C36.06 108 30.12 108 24 108 C24 109.98 24 111.96 24 114 C20.04 114 16.08 114 12 114 C12 115.98 12 117.96 12 120 C8.04 120 4.08 120 0 120 C0 121.98 0 123.96 0 126 C-7.92 126 -15.84 126 -24 126 C-24 124.02 -24 122.04 -24 120 C-20.04 120 -16.08 120 -12 120 C-12 118.02 -12 116.04 -12 114 C-8.04 114 -4.08 114 0 114 C0 108.06 0 102.12 0 96 C-1.98 96 -3.96 96 -6 96 C-6 94.02 -6 92.04 -6 90 C-4.02 90 -2.04 90 0 90 C0 84.06 0 78.12 0 72 C-1.98 72 -3.96 72 -6 72 C-6 70.02 -6 68.04 -6 66 C-4.02 66 -2.04 66 0 66 C0 64.02 0 62.04 0 60 C-5.94 60 -11.88 60 -18 60 C-18 58.02 -18 56.04 -18 54 C-10.08 54 -2.16 54 6 54 C6 55.98 6 57.96 6 60 C9.96 60 13.92 60 18 60 C18 58.02 18 56.04 18 54 C19.98 54 21.96 54 24 54 C24 52.02 24 50.04 24 48 C25.98 48 27.96 48 30 48 C30 46.02 30 44.04 30 42 C31.98 42 33.96 42 36 42 C36 36.06 36 30.12 36 24 C34.02 24 32.04 24 30 24 C30 22.02 30 20.04 30 18 C28.02 18 26.04 18 24 18 C24 16.02 24 14.04 24 12 C16.08 12 8.16 12 0 12 C0 13.98 0 15.96 0 18 C-1.98 18 -3.96 18 -6 18 C-6 19.98 -6 21.96 -6 24 C-7.98 24 -9.96 24 -12 24 C-12 20.04 -12 16.08 -12 12 C-10.02 12 -8.04 12 -6 12 C-6 10.02 -6 8.04 -6 6 C-4.02 6 -2.04 6 0 6 C0 4.02 0 2.04 0 0 Z " fill="#0086DD" transform="translate(168,162)"/>
<path d="M0 0 C9.9 0 19.8 0 30 0 C30 1.98 30 3.96 30 6 C33.96 6 37.92 6 42 6 C42 7.98 42 9.96 42 12 C49.92 12 57.84 12 66 12 C66 10.02 66 8.04 66 6 C87.78 6 109.56 6 132 6 C132 7.98 132 9.96 132 12 C112.2 12 92.4 12 72 12 C72 13.98 72 15.96 72 18 C64.08 18 56.16 18 48 18 C48 19.98 48 21.96 48 24 C46.02 24 44.04 24 42 24 C42 25.98 42 27.96 42 30 C38.04 30 34.08 30 30 30 C30 31.98 30 33.96 30 36 C28.02 36 26.04 36 24 36 C24 37.98 24 39.96 24 42 C20.04 42 16.08 42 12 42 C12 43.98 12 45.96 12 48 C10.02 48 8.04 48 6 48 C6 51.96 6 55.92 6 60 C4.02 60 2.04 60 0 60 C0 63.96 0 67.92 0 72 C-1.98 72 -3.96 72 -6 72 C-6 73.98 -6 75.96 -6 78 C-7.98 78 -9.96 78 -12 78 C-12 79.98 -12 81.96 -12 84 C-13.98 84 -15.96 84 -18 84 C-18 93.9 -18 103.8 -18 114 C-19.98 114 -21.96 114 -24 114 C-24 102.12 -24 90.24 -24 78 C-22.02 78 -20.04 78 -18 78 C-18 74.04 -18 70.08 -18 66 C-19.98 66 -21.96 66 -24 66 C-24 64.02 -24 62.04 -24 60 C-25.98 60 -27.96 60 -30 60 C-30 54.06 -30 48.12 -30 42 C-28.02 42 -26.04 42 -24 42 C-24 36.06 -24 30.12 -24 24 C-22.02 24 -20.04 24 -18 24 C-18 20.04 -18 16.08 -18 12 C-16.02 12 -14.04 12 -12 12 C-12 10.02 -12 8.04 -12 6 C-8.04 6 -4.08 6 0 6 C0 4.02 0 2.04 0 0 Z " fill="#FFCACB" transform="translate(48,18)"/>
<path d="M0 0 C9.9 0 19.8 0 30 0 C30 1.98 30 3.96 30 6 C33.96 6 37.92 6 42 6 C42 7.98 42 9.96 42 12 C45.96 12 49.92 12 54 12 C54 15.96 54 19.92 54 24 C55.98 24 57.96 24 60 24 C60 25.98 60 27.96 60 30 C61.98 30 63.96 30 66 30 C66 33.96 66 37.92 66 42 C62.04 42 58.08 42 54 42 C54 40.02 54 38.04 54 36 C52.02 36 50.04 36 48 36 C48 32.04 48 28.08 48 24 C44.04 24 40.08 24 36 24 C36 22.02 36 20.04 36 18 C26.1 18 16.2 18 6 18 C6 19.98 6 21.96 6 24 C4.02 24 2.04 24 0 24 C0 31.92 0 39.84 0 48 C1.98 48 3.96 48 6 48 C6 49.98 6 51.96 6 54 C7.98 54 9.96 54 12 54 C12 55.98 12 57.96 12 60 C17.94 60 23.88 60 30 60 C30 61.98 30 63.96 30 66 C18.12 66 6.24 66 -6 66 C-6 64.02 -6 62.04 -6 60 C-11.94 60 -17.88 60 -24 60 C-24 58.02 -24 56.04 -24 54 C-22.02 54 -20.04 54 -18 54 C-18 42.12 -18 30.24 -18 18 C-16.02 18 -14.04 18 -12 18 C-12 16.02 -12 14.04 -12 12 C-10.02 12 -8.04 12 -6 12 C-6 10.02 -6 8.04 -6 6 C-4.02 6 -2.04 6 0 6 C0 4.02 0 2.04 0 0 Z " fill="#0086DD" transform="translate(90,156)"/>
<path d="M0 0 C13.86 0 27.72 0 42 0 C42 1.98 42 3.96 42 6 C45.96 6 49.92 6 54 6 C54 7.98 54 9.96 54 12 C55.98 12 57.96 12 60 12 C60 15.96 60 19.92 60 24 C61.98 24 63.96 24 66 24 C66 33.9 66 43.8 66 54 C64.02 54 62.04 54 60 54 C60 57.96 60 61.92 60 66 C58.02 66 56.04 66 54 66 C54 71.94 54 77.88 54 84 C52.02 84 50.04 84 48 84 C48 80.04 48 76.08 48 72 C46.02 72 44.04 72 42 72 C42 68.04 42 64.08 42 60 C40.02 60 38.04 60 36 60 C36 58.02 36 56.04 36 54 C34.02 54 32.04 54 30 54 C30 52.02 30 50.04 30 48 C28.02 48 26.04 48 24 48 C24 46.02 24 44.04 24 42 C20.04 42 16.08 42 12 42 C12 40.02 12 38.04 12 36 C13.98 36 15.96 36 18 36 C18 34.02 18 32.04 18 30 C29.88 30 41.76 30 54 30 C54 26.04 54 22.08 54 18 C52.02 18 50.04 18 48 18 C48 16.02 48 14.04 48 12 C44.04 12 40.08 12 36 12 C36 10.02 36 8.04 36 6 C24.12 6 12.24 6 0 6 C0 4.02 0 2.04 0 0 Z " fill="#FFCACB" transform="translate(222,18)"/>
<path d="M0 0 C3.96 0 7.92 0 12 0 C12 1.98 12 3.96 12 6 C17.94 6 23.88 6 30 6 C30 7.98 30 9.96 30 12 C28.02 12 26.04 12 24 12 C24 13.98 24 15.96 24 18 C25.98 18 27.96 18 30 18 C30 23.94 30 29.88 30 36 C28.02 36 26.04 36 24 36 C24 39.96 24 43.92 24 48 C22.02 48 20.04 48 18 48 C18 49.98 18 51.96 18 54 C16.02 54 14.04 54 12 54 C12 55.98 12 57.96 12 60 C10.02 60 8.04 60 6 60 C6 61.98 6 63.96 6 66 C0.06 66 -5.88 66 -12 66 C-12 58.08 -12 50.16 -12 42 C-8.04 42 -4.08 42 0 42 C0 36.06 0 30.12 0 24 C1.98 24 3.96 24 6 24 C6 22.02 6 20.04 6 18 C7.98 18 9.96 18 12 18 C12 16.02 12 14.04 12 12 C6.06 12 0.12 12 -6 12 C-6 10.02 -6 8.04 -6 6 C-4.02 6 -2.04 6 0 6 C0 4.02 0 2.04 0 0 Z " fill="#E2E2EC" transform="translate(138,216)"/>
<path d="M0 0 C3.96 0 7.92 0 12 0 C12 1.98 12 3.96 12 6 C17.94 6 23.88 6 30 6 C30 7.98 30 9.96 30 12 C28.02 12 26.04 12 24 12 C24 13.98 24 15.96 24 18 C22.02 18 20.04 18 18 18 C18 23.94 18 29.88 18 36 C14.04 36 10.08 36 6 36 C6 39.96 6 43.92 6 48 C4.02 48 2.04 48 0 48 C0 44.04 0 40.08 0 36 C-7.92 36 -15.84 36 -24 36 C-24 30.06 -24 24.12 -24 18 C-22.02 18 -20.04 18 -18 18 C-18 16.02 -18 14.04 -18 12 C-16.02 12 -14.04 12 -12 12 C-12 10.02 -12 8.04 -12 6 C-8.04 6 -4.08 6 0 6 C0 4.02 0 2.04 0 0 Z " fill="#0086DD" transform="translate(120,222)"/>
<path d="M0 0 C9.9 0 19.8 0 30 0 C30 3.96 30 7.92 30 12 C31.98 12 33.96 12 36 12 C36 15.96 36 19.92 36 24 C32.04 24 28.08 24 24 24 C24 25.98 24 27.96 24 30 C10.14 30 -3.72 30 -18 30 C-18 24.06 -18 18.12 -18 12 C-16.02 12 -14.04 12 -12 12 C-12 10.02 -12 8.04 -12 6 C-8.04 6 -4.08 6 0 6 C0 4.02 0 2.04 0 0 Z " fill="#FFFFFF" transform="translate(48,18)"/>
<path d="M0 0 C5.94 0 11.88 0 18 0 C18 1.98 18 3.96 18 6 C21.96 6 25.92 6 30 6 C30 7.98 30 9.96 30 12 C31.98 12 33.96 12 36 12 C36 15.96 36 19.92 36 24 C37.98 24 39.96 24 42 24 C42 29.94 42 35.88 42 42 C36.06 42 30.12 42 24 42 C24 40.02 24 38.04 24 36 C22.02 36 20.04 36 18 36 C18 34.02 18 32.04 18 30 C16.02 30 14.04 30 12 30 C12 28.02 12 26.04 12 24 C10.02 24 8.04 24 6 24 C6 22.02 6 20.04 6 18 C4.02 18 2.04 18 0 18 C0 12.06 0 6.12 0 0 Z " fill="#0076B8" transform="translate(198,84)"/>
<path d="M0 0 C5.94 0 11.88 0 18 0 C18 5.94 18 11.88 18 18 C16.02 18 14.04 18 12 18 C12 19.98 12 21.96 12 24 C10.02 24 8.04 24 6 24 C6 25.98 6 27.96 6 30 C4.02 30 2.04 30 0 30 C0 31.98 0 33.96 0 36 C-1.98 36 -3.96 36 -6 36 C-6 37.98 -6 39.96 -6 42 C-11.94 42 -17.88 42 -24 42 C-24 36.06 -24 30.12 -24 24 C-22.02 24 -20.04 24 -18 24 C-18 22.02 -18 20.04 -18 18 C-16.02 18 -14.04 18 -12 18 C-12 14.04 -12 10.08 -12 6 C-8.04 6 -4.08 6 0 6 C0 4.02 0 2.04 0 0 Z " fill="#0076B8" transform="translate(84,84)"/>
<path d="M0 0 C13.86 0 27.72 0 42 0 C42 1.98 42 3.96 42 6 C45.96 6 49.92 6 54 6 C54 7.98 54 9.96 54 12 C55.98 12 57.96 12 60 12 C60 15.96 60 19.92 60 24 C61.98 24 63.96 24 66 24 C66 33.9 66 43.8 66 54 C64.02 54 62.04 54 60 54 C60 57.96 60 61.92 60 66 C58.02 66 56.04 66 54 66 C54 71.94 54 77.88 54 84 C52.02 84 50.04 84 48 84 C48 80.04 48 76.08 48 72 C46.02 72 44.04 72 42 72 C42 68.04 42 64.08 42 60 C45.96 60 49.92 60 54 60 C54 56.04 54 52.08 54 48 C55.98 48 57.96 48 60 48 C60 42.06 60 36.12 60 30 C58.02 30 56.04 30 54 30 C54 26.04 54 22.08 54 18 C52.02 18 50.04 18 48 18 C48 16.02 48 14.04 48 12 C44.04 12 40.08 12 36 12 C36 10.02 36 8.04 36 6 C24.12 6 12.24 6 0 6 C0 4.02 0 2.04 0 0 Z " fill="#0076B8" transform="translate(222,18)"/>
<path d="M0 0 C3.96 0 7.92 0 12 0 C12 1.98 12 3.96 12 6 C19.92 6 27.84 6 36 6 C36 4.02 36 2.04 36 0 C57.78 0 79.56 0 102 0 C102 1.98 102 3.96 102 6 C82.2 6 62.4 6 42 6 C42 7.98 42 9.96 42 12 C34.08 12 26.16 12 18 12 C18 13.98 18 15.96 18 18 C16.02 18 14.04 18 12 18 C12 19.98 12 21.96 12 24 C8.04 24 4.08 24 0 24 C0 25.98 0 27.96 0 30 C-1.98 30 -3.96 30 -6 30 C-6 31.98 -6 33.96 -6 36 C-7.98 36 -9.96 36 -12 36 C-12 32.04 -12 28.08 -12 24 C-10.02 24 -8.04 24 -6 24 C-6 22.02 -6 20.04 -6 18 C-2.04 18 1.92 18 6 18 C6 14.04 6 10.08 6 6 C4.02 6 2.04 6 0 6 C0 4.02 0 2.04 0 0 Z " fill="#0076B8" transform="translate(78,24)"/>
<path d="M0 0 C1.98 0 3.96 0 6 0 C6 1.98 6 3.96 6 6 C7.98 6 9.96 6 12 6 C12 29.76 12 53.52 12 78 C10.02 78 8.04 78 6 78 C6 81.96 6 85.92 6 90 C4.02 90 2.04 90 0 90 C0 91.98 0 93.96 0 96 C-3.96 96 -7.92 96 -12 96 C-12 94.02 -12 92.04 -12 90 C-10.02 90 -8.04 90 -6 90 C-6 88.02 -6 86.04 -6 84 C-4.02 84 -2.04 84 0 84 C0 80.04 0 76.08 0 72 C1.98 72 3.96 72 6 72 C6 52.2 6 32.4 6 12 C4.02 12 2.04 12 0 12 C0 8.04 0 4.08 0 0 Z " fill="#0076B8" transform="translate(276,102)"/>
<path d="M0 0 C11.88 0 23.76 0 36 0 C36 3.96 36 7.92 36 12 C34.02 12 32.04 12 30 12 C30 13.98 30 15.96 30 18 C22.08 18 14.16 18 6 18 C6 16.02 6 14.04 6 12 C4.02 12 2.04 12 0 12 C0 8.04 0 4.08 0 0 Z " fill="#0076B8" transform="translate(132,108)"/>
<path d="M0 0 C3.96 0 7.92 0 12 0 C12 1.98 12 3.96 12 6 C15.96 6 19.92 6 24 6 C24 7.98 24 9.96 24 12 C22.02 12 20.04 12 18 12 C18 13.98 18 15.96 18 18 C16.02 18 14.04 18 12 18 C12 19.98 12 21.96 12 24 C10.02 24 8.04 24 6 24 C6 33.9 6 43.8 6 54 C4.02 54 2.04 54 0 54 C0 42.12 0 30.24 0 18 C1.98 18 3.96 18 6 18 C6 14.04 6 10.08 6 6 C4.02 6 2.04 6 0 6 C0 4.02 0 2.04 0 0 Z " fill="#0076B8" transform="translate(24,78)"/>
<path d="M0 0 C3.96 0 7.92 0 12 0 C12 1.98 12 3.96 12 6 C10.02 6 8.04 6 6 6 C6 11.94 6 17.88 6 24 C2.04 24 -1.92 24 -6 24 C-6 22.02 -6 20.04 -6 18 C-9.96 18 -13.92 18 -18 18 C-18 16.02 -18 14.04 -18 12 C-21.96 12 -25.92 12 -30 12 C-30 10.02 -30 8.04 -30 6 C-24.06 6 -18.12 6 -12 6 C-12 7.98 -12 9.96 -12 12 C-8.04 12 -4.08 12 0 12 C0 8.04 0 4.08 0 0 Z " fill="#0076B8" transform="translate(210,24)"/>
<path d="M0 0 C3.96 0 7.92 0 12 0 C12 1.98 12 3.96 12 6 C13.98 6 15.96 6 18 6 C18 9.96 18 13.92 18 18 C10.08 18 2.16 18 -6 18 C-6 14.04 -6 10.08 -6 6 C-4.02 6 -2.04 6 0 6 C0 4.02 0 2.04 0 0 Z " fill="#E2E2EC" transform="translate(114,234)"/>
<path d="M0 0 C3.96 0 7.92 0 12 0 C12 1.98 12 3.96 12 6 C17.94 6 23.88 6 30 6 C30 7.98 30 9.96 30 12 C28.02 12 26.04 12 24 12 C24 13.98 24 15.96 24 18 C20.04 18 16.08 18 12 18 C12 16.02 12 14.04 12 12 C6.06 12 0.12 12 -6 12 C-6 10.02 -6 8.04 -6 6 C-4.02 6 -2.04 6 0 6 C0 4.02 0 2.04 0 0 Z " fill="#FFFF27" transform="translate(138,216)"/>
<path d="M0 0 C3.96 0 7.92 0 12 0 C12 1.98 12 3.96 12 6 C10.02 6 8.04 6 6 6 C6 7.98 6 9.96 6 12 C4.02 12 2.04 12 0 12 C0 13.98 0 15.96 0 18 C-5.94 18 -11.88 18 -18 18 C-18 14.04 -18 10.08 -18 6 C-16.02 6 -14.04 6 -12 6 C-12 7.98 -12 9.96 -12 12 C-10.02 12 -8.04 12 -6 12 C-6 10.02 -6 8.04 -6 6 C-4.02 6 -2.04 6 0 6 C0 4.02 0 2.04 0 0 Z " fill="#0086DD" transform="translate(144,264)"/>
<path d="M0 0 C1.98 0 3.96 0 6 0 C6 1.98 6 3.96 6 6 C9.96 6 13.92 6 18 6 C18 4.02 18 2.04 18 0 C23.94 0 29.88 0 36 0 C36 1.98 36 3.96 36 6 C32.04 6 28.08 6 24 6 C24 7.98 24 9.96 24 12 C16.08 12 8.16 12 0 12 C0 8.04 0 4.08 0 0 Z " fill="#0076B8" transform="translate(228,198)"/>
<path d="M0 0 C7.92 0 15.84 0 24 0 C24 1.98 24 3.96 24 6 C22.02 6 20.04 6 18 6 C18 7.98 18 9.96 18 12 C12.06 12 6.12 12 0 12 C0 8.04 0 4.08 0 0 Z " fill="#65BBE9" transform="translate(126,228)"/>
<path d="M0 0 C1.98 0 3.96 0 6 0 C6 11.88 6 23.76 6 36 C4.02 36 2.04 36 0 36 C0 24.12 0 12.24 0 0 Z " fill="#0076B8" transform="translate(18,132)"/>
<path d="M0 0 C3.96 0 7.92 0 12 0 C12 1.98 12 3.96 12 6 C10.02 6 8.04 6 6 6 C6 7.98 6 9.96 6 12 C4.02 12 2.04 12 0 12 C0 13.98 0 15.96 0 18 C-1.98 18 -3.96 18 -6 18 C-6 14.04 -6 10.08 -6 6 C-4.02 6 -2.04 6 0 6 C0 4.02 0 2.04 0 0 Z " fill="#0076B8" transform="translate(36,24)"/>
<path d="M0 0 C9.9 0 19.8 0 30 0 C30 1.98 30 3.96 30 6 C20.1 6 10.2 6 0 6 C0 4.02 0 2.04 0 0 Z " fill="#0076B8" transform="translate(48,18)"/>
<path d="M0 0 C5.94 0 11.88 0 18 0 C18 1.98 18 3.96 18 6 C14.04 6 10.08 6 6 6 C6 7.98 6 9.96 6 12 C4.02 12 2.04 12 0 12 C0 8.04 0 4.08 0 0 Z " fill="#0086DD" transform="translate(132,210)"/>
<path d="M0 0 C3.96 0 7.92 0 12 0 C12 3.96 12 7.92 12 12 C8.04 12 4.08 12 0 12 C0 8.04 0 4.08 0 0 Z " fill="#FFFF27" transform="translate(120,210)"/>
<path d="M0 0 C3.96 0 7.92 0 12 0 C12 1.98 12 3.96 12 6 C10.02 6 8.04 6 6 6 C6 7.98 6 9.96 6 12 C4.02 12 2.04 12 0 12 C0 8.04 0 4.08 0 0 Z " fill="#65BBE9" transform="translate(150,234)"/>
<path d="M0 0 C3.96 0 7.92 0 12 0 C12 1.98 12 3.96 12 6 C10.02 6 8.04 6 6 6 C6 7.98 6 9.96 6 12 C4.02 12 2.04 12 0 12 C0 8.04 0 4.08 0 0 Z " fill="#0086DD" transform="translate(138,228)"/>
<path d="M0 0 C1.98 0 3.96 0 6 0 C6 5.94 6 11.88 6 18 C4.02 18 2.04 18 0 18 C0 12.06 0 6.12 0 0 Z " fill="#0076B8" transform="translate(18,60)"/>
<path d="M0 0 C3.96 0 7.92 0 12 0 C12 3.96 12 7.92 12 12 C10.02 12 8.04 12 6 12 C6 10.02 6 8.04 6 6 C4.02 6 2.04 6 0 6 C0 4.02 0 2.04 0 0 Z " fill="#0076B8" transform="translate(216,48)"/>
<path d="M0 0 C1.98 0 3.96 0 6 0 C6 5.94 6 11.88 6 18 C4.02 18 2.04 18 0 18 C0 12.06 0 6.12 0 0 Z " fill="#0076B8" transform="translate(24,42)"/>
<path d="M0 0 C3.96 0 7.92 0 12 0 C12 1.98 12 3.96 12 6 C8.04 6 4.08 6 0 6 C0 4.02 0 2.04 0 0 Z " fill="#0076B8" transform="translate(66,210)"/>
<path d="M0 0 C3.96 0 7.92 0 12 0 C12 1.98 12 3.96 12 6 C8.04 6 4.08 6 0 6 C0 4.02 0 2.04 0 0 Z " fill="#0076B8" transform="translate(54,204)"/>
<path d="M0 0 C3.96 0 7.92 0 12 0 C12 1.98 12 3.96 12 6 C8.04 6 4.08 6 0 6 C0 4.02 0 2.04 0 0 Z " fill="#0076B8" transform="translate(36,192)"/>
<path d="M0 0 C1.98 0 3.96 0 6 0 C6 3.96 6 7.92 6 12 C4.02 12 2.04 12 0 12 C0 8.04 0 4.08 0 0 Z " fill="#0076B8" transform="translate(30,180)"/>
<path d="M0 0 C1.98 0 3.96 0 6 0 C6 3.96 6 7.92 6 12 C4.02 12 2.04 12 0 12 C0 8.04 0 4.08 0 0 Z " fill="#0076B8" transform="translate(24,168)"/>
<path d="M0 0 C1.98 0 3.96 0 6 0 C6 1.98 6 3.96 6 6 C4.02 6 2.04 6 0 6 C0 4.02 0 2.04 0 0 Z " fill="#0086DD" transform="translate(156,258)"/>
<path d="M0 0 C1.98 0 3.96 0 6 0 C6 1.98 6 3.96 6 6 C4.02 6 2.04 6 0 6 C0 4.02 0 2.04 0 0 Z " fill="#FFFF27" transform="translate(162,234)"/>
<path d="M0 0 C1.98 0 3.96 0 6 0 C6 1.98 6 3.96 6 6 C4.02 6 2.04 6 0 6 C0 4.02 0 2.04 0 0 Z " fill="#E2E2EC" transform="translate(132,234)"/>
<path d="M0 0 C1.98 0 3.96 0 6 0 C6 1.98 6 3.96 6 6 C4.02 6 2.04 6 0 6 C0 4.02 0 2.04 0 0 Z " fill="#0086DD" transform="translate(264,228)"/>
<path d="M0 0 C1.98 0 3.96 0 6 0 C6 1.98 6 3.96 6 6 C4.02 6 2.04 6 0 6 C0 4.02 0 2.04 0 0 Z " fill="#0076B8" transform="translate(48,198)"/>
</svg>
