<?xml version="1.0" standalone="no"?>
<!DOCTYPE svg PUBLIC "-//W3C//DTD SVG 20010904//EN"
 "http://www.w3.org/TR/2001/REC-SVG-20010904/DTD/svg10.dtd">
<svg version="1.0" xmlns="http://www.w3.org/2000/svg"
 width="300.000000pt" height="300.000000pt" viewBox="0 0 300.000000 300.000000"
 preserveAspectRatio="xMidYMid meet">

<g transform="translate(0.000000,300.000000) scale(0.100000,-0.100000)"
fill="#000000" stroke="none">
<path d="M480 2790 l0 -30 -60 0 -60 0 0 -30 c0 -27 -3 -30 -30 -30 l-30 0 0
-60 0 -60 -30 0 -30 0 0 -90 0 -90 -30 0 -30 0 0 -90 0 -90 30 0 c27 0 30 -3
30 -30 0 -27 3 -30 30 -30 l30 0 0 -60 0 -60 -30 0 -30 0 0 -180 0 -180 -30 0
-30 0 0 -180 0 -180 30 0 30 0 0 -60 0 -60 30 0 30 0 0 -60 0 -60 30 0 c27 0
30 -3 30 -30 l0 -30 60 0 60 0 0 -30 c0 -27 3 -30 30 -30 27 0 30 -3 30 -30
l0 -30 60 0 60 0 0 -30 0 -30 90 0 90 0 0 -30 0 -30 180 0 180 0 0 -30 0 -30
-60 0 -60 0 0 -30 c0 -27 -3 -30 -30 -30 -27 0 -30 -3 -30 -30 0 -27 -3 -30
-30 -30 l-30 0 0 -90 0 -90 120 0 120 0 0 -60 0 -60 30 0 30 0 0 -60 0 -60 90
0 90 0 0 -30 0 -30 120 0 120 0 0 30 0 30 60 0 60 0 0 30 0 30 60 0 60 0 0 30
0 30 90 0 90 0 0 30 0 30 90 0 90 0 0 30 0 30 90 0 90 0 0 30 0 30 60 0 60 0
0 60 0 60 30 0 c27 0 30 3 30 30 0 27 3 30 30 30 27 0 30 3 30 30 0 27 -3 30
-30 30 -27 0 -30 -3 -30 -30 l0 -30 -270 0 -270 0 0 -30 0 -30 -60 0 -60 0 0
-30 c0 -27 -3 -30 -30 -30 -27 0 -30 -3 -30 -30 0 -27 -3 -30 -30 -30 -27 0
-30 3 -30 30 0 27 -3 30 -30 30 l-30 0 0 60 0 60 30 0 c27 0 30 3 30 30 l0 30
90 0 90 0 0 30 0 30 60 0 60 0 0 60 0 60 180 0 180 0 0 30 0 30 60 0 60 0 0
30 0 30 60 0 60 0 0 30 c0 27 3 30 30 30 l30 0 0 60 0 60 30 0 30 0 0 360 0
360 -30 0 c-27 0 -30 3 -30 30 0 27 -3 30 -30 30 l-30 0 0 90 0 90 30 0 30 0
0 60 0 60 30 0 30 0 0 150 0 150 -30 0 -30 0 0 60 0 60 -30 0 c-27 0 -30 3
-30 30 l0 30 -60 0 -60 0 0 30 0 30 -210 0 -210 0 0 -30 0 -30 -60 0 -60 0 0
-60 0 -60 -60 0 -60 0 0 30 0 30 -90 0 -90 0 0 30 0 30 -330 0 -330 0 0 -30 0
-30 -120 0 -120 0 0 30 0 30 -60 0 -60 0 0 30 0 30 -150 0 -150 0 0 -30z m300
-60 c0 -27 3 -30 30 -30 l30 0 0 -60 0 -60 -60 0 -60 0 0 -30 c0 -27 -3 -30
-30 -30 l-30 0 0 -60 0 -60 30 0 c27 0 30 3 30 30 0 27 3 30 30 30 27 0 30 3
30 30 l0 30 60 0 60 0 0 30 c0 27 3 30 30 30 27 0 30 3 30 30 l0 30 120 0 120
0 0 30 0 30 300 0 300 0 0 -30 0 -30 60 0 60 0 0 -30 0 -30 60 0 60 0 0 -30 0
-30 60 0 60 0 0 90 0 90 30 0 c27 0 30 3 30 30 l0 30 180 0 180 0 0 -30 0 -30
60 0 60 0 0 -30 c0 -27 3 -30 30 -30 l30 0 0 -60 0 -60 30 0 30 0 0 -90 0 -90
-30 0 -30 0 0 -60 0 -60 -60 0 -60 0 0 -60 0 -60 30 0 30 0 0 -60 0 -60 30 0
30 0 0 -60 0 -60 30 0 30 0 0 -300 0 -300 -30 0 -30 0 0 -60 0 -60 -30 0 c-27
0 -30 -3 -30 -30 0 -27 -3 -30 -30 -30 -27 0 -30 -3 -30 -30 l0 -30 -90 0 -90
0 0 -30 0 -30 -60 0 -60 0 0 30 c0 27 -3 30 -30 30 l-30 0 0 60 0 60 -30 0
c-27 0 -30 3 -30 30 0 27 -3 30 -30 30 -27 0 -30 3 -30 30 0 27 -3 30 -30 30
l-30 0 0 60 0 60 -210 0 -210 0 0 -30 c0 -27 -3 -30 -30 -30 -27 0 -30 -3 -30
-30 0 -27 -3 -30 -30 -30 l-30 0 0 -60 0 -60 30 0 c27 0 30 3 30 30 0 27 3 30
30 30 27 0 30 3 30 30 l0 30 120 0 120 0 0 -30 c0 -27 3 -30 30 -30 27 0 30
-3 30 -30 0 -27 3 -30 30 -30 l30 0 0 -90 0 -90 -30 0 c-27 0 -30 -3 -30 -30
0 -27 -3 -30 -30 -30 -27 0 -30 -3 -30 -30 0 -27 -3 -30 -30 -30 -27 0 -30 -3
-30 -30 l0 -30 -60 0 -60 0 0 30 0 30 -120 0 -120 0 0 -30 0 -30 90 0 90 0 0
-30 c0 -27 -3 -30 -30 -30 -27 0 -30 -3 -30 -30 0 -27 3 -30 30 -30 l30 0 0
-90 0 -90 -30 0 c-27 0 -30 -3 -30 -30 0 -27 3 -30 30 -30 l30 0 0 -90 0 -90
-60 0 -60 0 0 -30 0 -30 -60 0 -60 0 0 30 c0 27 3 30 30 30 27 0 30 3 30 30 0
27 3 30 30 30 27 0 30 3 30 30 l0 30 -60 0 -60 0 0 -30 c0 -27 -3 -30 -30 -30
-27 0 -30 -3 -30 -30 0 -27 -3 -30 -30 -30 -27 0 -30 3 -30 30 0 27 -3 30 -30
30 l-30 0 0 60 0 60 60 0 60 0 0 90 0 90 -30 0 -30 0 0 -60 0 -60 -120 0 -120
0 0 60 0 60 30 0 c27 0 30 3 30 30 l0 30 60 0 60 0 0 30 c0 27 3 30 30 30 27
0 30 3 30 30 l0 30 -60 0 -60 0 0 30 0 30 -90 0 -90 0 0 30 c0 27 -3 30 -30
30 -27 0 -30 3 -30 30 0 27 -3 30 -30 30 l-30 0 0 120 0 120 30 0 c27 0 30 3
30 30 l0 30 150 0 150 0 0 -30 0 -30 60 0 60 0 0 -60 0 -60 30 0 c27 0 30 -3
30 -30 l0 -30 60 0 60 0 0 60 0 60 -30 0 c-27 0 -30 3 -30 30 0 27 -3 30 -30
30 l-30 0 0 60 0 60 -60 0 -60 0 0 30 0 30 -60 0 -60 0 0 30 0 30 -150 0 -150
0 0 -30 c0 -27 -3 -30 -30 -30 -27 0 -30 -3 -30 -30 0 -27 -3 -30 -30 -30 -27
0 -30 -3 -30 -30 0 -27 -3 -30 -30 -30 l-30 0 0 -180 0 -180 -30 0 c-27 0 -30
3 -30 30 l0 30 -60 0 -60 0 0 30 c0 27 -3 30 -30 30 -27 0 -30 3 -30 30 l0 30
-60 0 -60 0 0 60 0 60 -30 0 -30 0 0 60 0 60 -30 0 -30 0 0 180 0 180 30 0 30
0 0 150 0 150 30 0 c27 0 30 3 30 30 0 27 3 30 30 30 27 0 30 3 30 30 0 27 3
30 30 30 27 0 30 3 30 30 l0 30 -60 0 -60 0 0 30 0 30 -60 0 -60 0 0 90 0 90
30 0 30 0 0 90 0 90 30 0 c27 0 30 3 30 30 0 27 3 30 30 30 27 0 30 3 30 30 0
27 3 30 30 30 27 0 30 3 30 30 l0 30 150 0 150 0 0 -30z"/>
<path d="M2160 2490 c0 -27 3 -30 30 -30 27 0 30 -3 30 -30 0 -27 3 -30 30
-30 l30 0 0 60 0 60 -60 0 -60 0 0 -30z"/>
<path d="M840 2130 l0 -30 -60 0 -60 0 0 -60 0 -60 -30 0 c-27 0 -30 -3 -30
-30 0 -27 -3 -30 -30 -30 l-30 0 0 -90 0 -90 90 0 90 0 0 30 c0 27 3 30 30 30
27 0 30 3 30 30 0 27 3 30 30 30 27 0 30 3 30 30 0 27 3 30 30 30 27 0 30 3
30 30 0 27 3 30 30 30 l30 0 0 90 0 90 -90 0 -90 0 0 -30z"/>
<path d="M1980 2070 l0 -90 30 0 c27 0 30 -3 30 -30 0 -27 3 -30 30 -30 27 0
30 -3 30 -30 0 -27 3 -30 30 -30 27 0 30 -3 30 -30 0 -27 3 -30 30 -30 27 0
30 -3 30 -30 l0 -30 90 0 90 0 0 90 0 90 -30 0 -30 0 0 60 0 60 -30 0 c-27 0
-30 3 -30 30 l0 30 -60 0 -60 0 0 30 0 30 -90 0 -90 0 0 -90z"/>
<path d="M1320 1860 l0 -60 30 0 c27 0 30 -3 30 -30 l0 -30 120 0 120 0 0 30
c0 27 3 30 30 30 l30 0 0 60 0 60 -180 0 -180 0 0 -60z"/>
<path d="M1320 840 l0 -60 30 0 c27 0 30 3 30 30 l0 30 60 0 60 0 0 30 0 30
-90 0 -90 0 0 -60z"/>
<path d="M1380 660 l0 -60 30 0 c27 0 30 3 30 30 0 27 3 30 30 30 27 0 30 3
30 30 l0 30 -60 0 -60 0 0 -60z"/>
<path d="M1560 390 c0 -27 3 -30 30 -30 27 0 30 3 30 30 0 27 -3 30 -30 30
-27 0 -30 -3 -30 -30z"/>
</g>
</svg>
